<svg id="Layer_1" data-name="Layer 1" xmlns="http://www.w3.org/2000/svg" viewBox="0 0 400 630"><defs><style>.cls-1{fill:#fff;}.cls-2{fill:#2affbd;}</style></defs><title>kaleng</title><path class="cls-1" d="M1198.80841,415V790l-50,50h-300l-50-50V415l38.13-95.32a6.56209,6.56209,0,0,0-.13,1.32c0,17.67,68.11,32,162,32s162-14.33,162-32a6.56715,6.56715,0,0,0-.13-1.32Z" transform="translate(-798.80841 -210)"/><path class="cls-2" d="M837.13,319.68a8.22444,8.22444,0,0,1,1.1-2.76Z" transform="translate(-798.80841 -210)"/><path class="cls-2" d="M1160.87,319.68l-1.1-2.76A8.22444,8.22444,0,0,1,1160.87,319.68Z" transform="translate(-798.80841 -210)"/><path class="cls-1" d="M1033.79,264.74,1028.73,275.33c65.96,2.43,109.18994,11.64,109.18994,20.88,0,10.77-58.75,21.5-143.74994,21.5s-134.75-10.73-134.75-21.5c0-9.65,39.92-19.26,109.33-21.16l-5.11-10.71c-74.06,2.77-116.58,15.79-116.58,31.45,0,17.67,54.22,32,146.85,32s156.65009-14.33,156.65009-32C1150.56006,280.78,1104.41992,268.19,1033.79,264.74ZM994.17,274.71c9.43,0,18.54.13,27.28.38l3.87006-10.72c-10.04-.38-20.53009-.58-31.4101-.58q-11.25,0-21.72.28l3.9,10.81Q984.835,274.71494,994.17,274.71Z" transform="translate(-798.80841 -210)"/><path class="cls-1" d="M1035.57312,295.78431c0,7.85049-16.46077,14.21569-36.76471,14.21569-20.30633,0-36.7647-6.3652-36.7647-14.21569,0-4.20343,4.71568-7.97793,12.21325-10.58089l6.31618,16.70834h36.4706l6.31615-16.70834C1030.85743,287.80638,1035.57312,291.58333,1035.57312,295.78431Z" transform="translate(-798.80841 -210)"/><path class="cls-1" d="M1020.47,218.97a30.53822,30.53822,0,0,0-20.87-8.96c-.26-.01-.53-.01-.79-.01s-.53,0-.79.01a30.63745,30.63745,0,0,0-29.85,30.63v12.25l4.02,11.18,3.9,10.81,7.52,20.9H1014l7.45-20.69,3.87006-10.72,4.12988-11.48V240.64A30.548,30.548,0,0,0,1020.47,218.97Zm-6.5,3.44a21.45031,21.45031,0,1,1-15.16-6.28A21.37293,21.37293,0,0,1,1013.97,222.41Z" transform="translate(-798.80841 -210)"/></svg>