<svg id="Layer_1" data-name="Layer 1" xmlns="http://www.w3.org/2000/svg" viewBox="0 0 500 670"><defs><style>.cls-1{fill:#fff;}</style></defs><title>snack</title><polygon class="cls-1" points="500 0 500 60 0 60 0 0 25 30 50 0 75 30 100 0 125 30 150 0 175 30 200 0 225 30 250 0 275 30 300 0 325 30 350 0 375 30 400 0 425 30 450 0 475 30 500 0"/><path class="cls-1" d="M1078.16992,503.58A101.01067,101.01067,0,1,1,1006.75,474,100.6817,100.6817,0,0,1,1078.16992,503.58Z" transform="translate(-757 -239)"/><path class="cls-1" d="M1207,374l50-50H757l50,50V774l-50,50h500l-50-50ZM1095.39,662.64A125.008,125.008,0,1,1,1132,574.25,124.60866,124.60866,0,0,1,1095.39,662.64Z" transform="translate(-757 -239)"/><polygon class="cls-1" points="500 670 500 610 0 610 0 670 25 640 50 670 75 640 100 670 125 640 150 670 175 640 200 670 225 640 250 670 275 640 300 670 325 640 350 670 375 640 400 670 425 640 450 670 475 640 500 670"/></svg>