<?xml version="1.0" encoding="UTF-8"?>
<svg version="1.1" xmlns="http://www.w3.org/2000/svg" width="512" height="512">
<path d="M0 0 C0.96395691 0.35680847 0.96395691 0.35680847 1.9473877 0.7208252 C4.07935313 1.51387636 6.20579738 2.3206242 8.33203125 3.12890625 C9.8623533 3.70459559 11.39270903 4.28019538 12.9230957 4.85571289 C44.00528024 16.59797721 74.90607867 28.90825464 105.14453125 42.69140625 C106.1928714 43.16900391 106.1928714 43.16900391 107.26239014 43.65625 C163.23425551 69.20260016 163.23425551 69.20260016 187.14453125 87.69140625 C183.97930894 91.16142774 180.44628834 93.53627569 176.45703125 95.94140625 C175.02384021 96.82145368 173.5916157 97.70307631 172.16015625 98.5859375 C170.97196289 99.31804443 170.97196289 99.31804443 169.75976562 100.06494141 C164.71148365 103.20456562 159.71166214 106.42033615 154.70703125 109.62890625 C153.62204346 110.3240332 152.53705566 111.01916016 151.41918945 111.73535156 C144.82098084 115.96608175 138.23455605 120.21451985 131.65844727 124.47949219 C120.03457445 132.01135105 108.34905112 139.44795658 96.67822266 146.90673828 C94.37709401 148.37739697 92.07615091 149.84834519 89.77539062 151.31958008 C87.61426471 152.70144775 85.45282235 154.08282068 83.29101562 155.46362305 C82.31068359 156.09051025 81.33035156 156.71739746 80.3203125 157.36328125 C79.40717285 157.94142578 78.4940332 158.51957031 77.55322266 159.11523438 C75.57893595 160.40714548 73.74045768 161.76875416 71.875 163.20703125 C68.04079577 165.29143412 66.35320599 164.83223483 62.14453125 163.69140625 C58.22266795 162.27825286 54.40546227 160.66314193 50.58203125 159.00390625 C49.43710205 158.51188721 48.29217285 158.01986816 47.11254883 157.51293945 C1.09410967 137.57192715 -44.33016859 115.14915642 -88.57666016 91.54394531 C-96.01259116 87.58015688 -103.51239282 83.74215067 -111.00939941 79.89559937 C-115.57308849 77.55314389 -120.13409038 75.20545988 -124.69540405 72.85838318 C-127.87193459 71.22423815 -131.04946543 69.59220436 -134.22998047 67.96582031 C-136.92118584 66.58941921 -139.60780171 65.20453784 -142.29296875 63.81640625 C-143.39898437 63.25566406 -143.39898437 63.25566406 -144.52734375 62.68359375 C-148.2122678 60.76600221 -151.10837772 58.82491673 -153.85546875 55.69140625 C-117.02923097 33.17562957 -76.60578071 18.01400851 -36.00195312 3.80029297 C-33.11784874 2.78387443 -30.24374926 1.74354428 -27.37109375 0.6953125 C-25.7828759 0.13059889 -24.19435974 -0.43327687 -22.60546875 -0.99609375 C-21.92162109 -1.25229492 -21.23777344 -1.50849609 -20.53320312 -1.77246094 C-13.25687508 -4.29175241 -6.98222173 -2.60653134 0 0 Z " fill="#FFFFFF" transform="translate(241.85546875,80.30859375)"/>
<path d="M0 0 C4.3192778 1.6227121 8.38490595 3.66358135 12.4765625 5.78125 C13.19439911 6.15060669 13.91223572 6.51996338 14.65182495 6.9005127 C16.97741929 8.09802467 19.30125264 9.29890847 21.625 10.5 C23.23887741 11.3321377 24.85280994 12.16416851 26.46679688 12.99609375 C34.16146114 16.96541946 41.84820259 20.94851009 49.5 25 C73.35339039 37.60686301 97.43206933 49.7751742 121.55021286 61.86571884 C123.39946096 62.79341724 125.24795466 63.72260145 127.09622192 64.6522522 C143.5083255 72.90422951 160.03483036 80.83436284 176.72898865 88.49462891 C183.45703776 91.59098339 190.16493489 94.73074521 196.87614441 97.86338806 C205.46677427 101.86233274 214.22198023 105.43765926 223 109 C223.40989545 114.68840793 223.8187818 120.37688727 224.22680664 126.06542969 C224.36521356 127.9931831 224.50387745 129.92091809 224.64282227 131.84863281 C225.31739859 141.20990141 225.98978628 150.5713651 226.59375 159.9375 C226.67173828 161.14277344 226.74972656 162.34804688 226.83007812 163.58984375 C227.08612732 168.72848626 227.08766851 173.85678081 227 179 C218.5625261 176.71328844 210.51550004 173.55586027 202.4375 170.25 C201.74504181 169.96755432 201.05258362 169.68510864 200.33914185 169.394104 C153.564791 150.27065371 108.20400976 127.42617931 64 103 C62.94844727 102.42137207 61.89689453 101.84274414 60.81347656 101.24658203 C33.86248552 86.41446653 7.42991524 70.73377498 -19 55 C-17.66163847 47.08154715 -15.43263723 39.60365474 -12.875 32 C-12.28537476 30.23499146 -12.28537476 30.23499146 -11.68383789 28.43432617 C-8.35934554 18.67391491 -4.45758387 9.2916939 0 0 Z " fill="#FFFFFF" transform="translate(81,147)"/>
<path d="M0 0 C3.86984693 1.44071648 7.33775703 3.24193751 10.91015625 5.30859375 C11.47115524 5.63154922 12.03215424 5.9545047 12.6101532 6.2872467 C13.80927282 6.97775895 15.00760208 7.66964524 16.2052002 8.36279297 C19.33701055 10.17498215 22.47497835 11.97642803 25.61328125 13.77734375 C26.23927216 14.13674042 26.86526306 14.49613708 27.51022339 14.86642456 C35.94056483 19.69746396 44.46424723 24.35843858 53 29 C51.9495284 32.26102923 50.8643956 35.28163991 49.375 38.375 C47.20484698 44.09631251 47.11783601 48.59289399 49.5625 54.125 C54.61240482 62.81357568 63.3576705 66.52152336 72.0625 70.75 C73.22072266 71.32621094 74.37894531 71.90242188 75.57226562 72.49609375 C87.34382878 78.69342139 87.34382878 78.69342139 100.234375 78.34765625 C108.41087562 75.15113839 112.443355 69.18547865 117 62 C121.62646617 63.43380932 125.94573301 65.28901486 130.30078125 67.38671875 C131.35176498 67.88722496 131.35176498 67.88722496 132.42398071 68.39784241 C133.93334124 69.11664414 135.44204956 69.83681671 136.95016479 70.55822754 C141.00137866 72.4948385 145.05894773 74.41800815 149.1171875 76.33984375 C149.94570724 76.73221222 150.77422699 77.12458069 151.62785339 77.52883911 C159.69772956 81.34290161 167.80747309 85.06615384 175.9375 88.75 C176.61182068 89.0555481 177.28614136 89.36109619 177.980896 89.67590332 C182.65109601 91.79024117 187.32485668 93.89661893 192 96 C192.65436035 96.29453064 193.3087207 96.58906128 193.98291016 96.89251709 C201.93773122 100.47253021 209.89850783 104.03896899 217.86376953 107.59570312 C220.76544482 108.8949742 223.662824 110.20325644 226.55859375 111.515625 C227.38496338 111.88824463 228.21133301 112.26086426 229.06274414 112.64477539 C230.53105659 113.30691904 231.99787769 113.97238769 233.46264648 114.64233398 C237.59185308 116.49680551 241.63572291 117.85536402 246 119 C246.10552531 132.73777205 246.08508086 146.45760505 245.5625 160.1875 C245.52326416 161.25403809 245.48402832 162.32057617 245.44360352 163.41943359 C245.21171309 168.99993668 244.78809592 174.47008327 244 180 C239.68986193 179.41540472 236.03089558 178.36899667 232.01953125 176.69921875 C230.8704126 176.22339355 229.72129395 175.74756836 228.53735352 175.25732422 C227.29551667 174.73456945 226.05390501 174.21127945 224.8125 173.6875 C223.50646572 173.14070014 222.2003941 172.59398944 220.89428711 172.04736328 C176.49175218 153.40561429 132.6759025 132.81181573 90.95947266 108.70263672 C87.68388003 106.81813062 84.39573343 104.95636017 81.10546875 103.09765625 C67.63887755 95.47982983 54.30872041 87.68641755 41.23339844 79.40917969 C39.13483176 78.08507312 37.02643891 76.7784846 34.9140625 75.4765625 C18.26803422 65.14677957 11.41485709 55.9082414 6.875 37 C5.87758004 32.67472148 4.92755207 28.34075763 4 24 C3.78537109 23.0001709 3.57074219 22.0003418 3.34960938 20.97021484 C0 5.203125 0 5.203125 0 0 Z " fill="#FFFFFF" transform="translate(62,255)"/>
<path d="M0 0 C-0.20238281 0.88042969 -0.40476562 1.76085937 -0.61328125 2.66796875 C-0.84402344 3.82941406 -1.07476562 4.99085938 -1.3125 6.1875 C-1.55613281 7.33605469 -1.79976562 8.48460937 -2.05078125 9.66796875 C-2.35382274 13.12357941 -2.35382274 13.12357941 0.13110352 15.47827148 C2.96200638 17.96660403 5.68821888 19.80709268 8.953125 21.6796875 C9.52142532 22.00897751 10.08972565 22.33826752 10.67524719 22.67753601 C12.52956633 23.7503411 14.3897631 24.81249563 16.25 25.875 C18.22345563 27.01387082 20.19519345 28.15567404 22.16676331 29.29780579 C23.50436763 30.07263128 24.84245452 30.84662428 26.18101501 31.61979675 C32.35506657 35.19029556 38.4617039 38.86841731 44.5625 42.5625 C64.19716244 54.40000407 84.1524314 65.66959942 104.33105469 76.55224609 C106.99195423 77.99563562 109.64149628 79.4580981 112.2890625 80.92578125 C155.70534222 104.89249346 200.78546237 126.43680933 247.86602783 142.2003479 C249.18295314 142.64259715 250.49780006 143.09109534 251.8102417 143.54647827 C261.37395046 146.84317857 269.00262172 148.1634086 278.66015625 144.6796875 C279.78292969 144.08414063 280.90570313 143.48859375 282.0625 142.875 C282.71621582 142.53082031 283.36993164 142.18664062 284.04345703 141.83203125 C286.37925596 140.58345017 288.69045661 139.29650695 291 138 C291.9379541 137.47567383 292.8759082 136.95134766 293.84228516 136.41113281 C359.54703203 104.0180078 359.54703203 104.0180078 411 55 C411.15725856 50.83264813 410.98317108 47.05558072 410 43 C413.85346456 43.62857933 416.41503938 45.43931384 419.5625 47.6875 C420.51253906 48.35136719 421.46257812 49.01523438 422.44140625 49.69921875 C426.12444718 53.01114411 427.72593092 56.10373822 428.43359375 61 C428.44329793 68.45281005 427.69017234 72.22175672 422.36328125 77.67578125 C410.4042848 89.02390558 395.81060283 98.06655609 382 107 C381.3198584 107.44102051 380.6397168 107.88204102 379.93896484 108.33642578 C354.60230791 124.70292613 328.33818189 139.64583886 301.96185303 154.26000977 C300.72317678 154.94639857 299.48491586 155.63353759 298.24713135 156.3215332 C267.63966894 173.31807348 267.63966894 173.31807348 255.00195312 170.27905273 C247.6159146 168.00945602 240.8267795 165.22990308 233.9375 161.75 C223.44512015 156.57841967 212.83172798 151.76882041 202.125 147.0625 C190.36145546 141.88247559 178.69295614 136.56688556 167.146698 130.91607666 C160.59784642 127.71939618 154.01933955 124.60341033 147.39614868 121.56394958 C132.55966248 114.752902 117.90595779 107.61069212 103.31591797 100.28833008 C100.22683355 98.73805825 97.13413084 97.19515986 94.04047012 95.6540451 C78.85137396 88.08329001 63.82383821 80.26692111 49 72 C48.31867004 71.62152924 47.63734009 71.24305847 46.93536377 70.8531189 C27.56549986 60.08654551 8.41439481 48.90636092 -9.625 36 C-10.2228833 35.57936279 -10.8207666 35.15872559 -11.43676758 34.7253418 C-15.87421449 31.45924031 -19.43461917 27.96045868 -20.49609375 22.40234375 C-20.46708984 21.18224609 -20.46708984 21.18224609 -20.4375 19.9375 C-20.43556641 18.71353516 -20.43556641 18.71353516 -20.43359375 17.46484375 C-19.43424745 11.78387512 -16.12193281 9.01090809 -11.5625 5.8125 C-10.61503906 5.13832031 -9.66757812 4.46414062 -8.69140625 3.76953125 C-2.9580574 0 -2.9580574 0 0 0 Z " fill="#FFFFFF" transform="translate(52,192)"/>
<path d="M0 0 C1.96117163 7.50629054 3.9178831 15.01373372 5.87158203 22.52197266 C6.53593358 25.07301794 7.20128416 27.62380328 7.86767578 30.17431641 C8.82851353 33.85250097 9.78568651 37.53162311 10.7421875 41.2109375 C11.03809784 42.34050873 11.33400818 43.47007996 11.6388855 44.63388062 C12.44717197 47.75105886 13.22943976 50.87330733 14 54 C14.36898407 55.4275058 14.36898407 55.4275058 14.74542236 56.8838501 C14.95463318 57.76732117 15.16384399 58.65079224 15.37939453 59.56103516 C15.56825226 60.32952789 15.75710999 61.09802063 15.95169067 61.88980103 C16.01667734 64.7284826 15.06339881 65.74394423 13.1875 67.8125 C11.49779403 69.25585089 9.76034924 70.64370408 8 72 C6.76942607 72.97642996 5.53896602 73.95300345 4.30859375 74.9296875 C-0.07062494 78.36387551 -4.53004908 81.68531239 -9 85 C-9.70415039 85.52754883 -10.40830078 86.05509766 -11.13378906 86.59863281 C-24.29950751 96.44681138 -38.08029201 105.26278194 -52 114 C-53.3597998 114.85875732 -53.3597998 114.85875732 -54.74707031 115.73486328 C-65.22760901 122.35053141 -75.83981473 128.72263498 -86.5625 134.9375 C-87.62073975 135.55246338 -88.67897949 136.16742676 -89.76928711 136.80102539 C-108.62752483 147.64928697 -108.62752483 147.64928697 -116 149 C-116.52579582 141.10645855 -117.04763707 133.21266933 -117.56460571 125.31854534 C-117.80484509 121.65193217 -118.04638168 117.9854146 -118.29101562 114.3190918 C-118.52760535 110.77257597 -118.76061419 107.22584048 -118.99127197 103.6789341 C-119.12180505 101.68551015 -119.25592595 99.69232217 -119.39013672 97.69914246 C-119.62032665 94.13358668 -119.82016475 90.56842021 -120 87 C-120.09293335 85.39930161 -120.09293335 85.39930161 -120.18774414 83.76626587 C-120.22246826 82.78741425 -120.25719238 81.80856262 -120.29296875 80.80004883 C-120.3293042 79.95106522 -120.36563965 79.1020816 -120.40307617 78.22737122 C-119.85842968 75.21769213 -118.60703249 74.348065 -116.1875 72.5625 C-114.13969558 71.3498337 -112.07454324 70.16633307 -110 69 C-107.91170239 67.701926 -105.84150613 66.37734795 -103.77026367 65.05224609 C-101.34558723 63.5038028 -98.91029553 61.97325901 -96.47265625 60.4453125 C-90.41905627 56.64222472 -84.39546726 52.79276334 -78.375 48.9375 C-77.30113037 48.24986572 -76.22726074 47.56223145 -75.12084961 46.85375977 C-68.57910219 42.66125589 -62.0490373 38.45129087 -55.53076172 34.22241211 C-48.1293109 29.42543912 -40.6944031 24.68081194 -33.26269531 19.9309082 C-26.22931323 15.43340437 -19.20935499 10.91607338 -12.21289062 6.36132812 C-2.42232979 0 -2.42232979 0 0 0 Z " fill="#FFFFFF" transform="translate(436,179)"/>
<path d="M0 0 C1.19206107 3.54279065 0.83469551 6.23432006 0.21484375 9.890625 C0.01697266 11.06399414 -0.18089844 12.23736328 -0.38476562 13.44628906 C-0.60841797 14.70151367 -0.83207031 15.95673828 -1.0625 17.25 C-1.29001953 18.53874023 -1.51753906 19.82748047 -1.75195312 21.15527344 C-3.26638592 29.57363501 -4.98739969 37.93556461 -7 46.25 C-7.22437744 47.20551758 -7.44875488 48.16103516 -7.67993164 49.14550781 C-10.06944734 58.58270996 -13.93262723 65.79547533 -21.25 72.25 C-21.85279785 72.79446777 -22.4555957 73.33893555 -23.07666016 73.89990234 C-44.7707494 93.17186284 -69.86387367 109.63582162 -96.05664062 122.06884766 C-98.01330886 123.00637688 -99.95216823 123.97466493 -101.890625 124.94921875 C-110.5140858 129.22156542 -119.32423981 132.72849298 -128.375 136 C-129.47577881 136.39823975 -130.57655762 136.79647949 -131.71069336 137.20678711 C-139.60557484 140 -139.60557484 140 -143 140 C-142.48043647 119.99262741 -141.92127914 99.99371757 -141 80 C-140.32839844 79.85046875 -139.65679687 79.7009375 -138.96484375 79.546875 C-118.68696769 74.20921472 -100.01736313 61.40720115 -82 51 C-81.42858276 50.67004028 -80.85716553 50.34008057 -80.26843262 50.00012207 C-65.52340858 41.48008474 -50.86016293 32.86069086 -36.54199219 23.63525391 C-33.56695999 21.72142701 -30.58447069 19.81949589 -27.6015625 17.91796875 C-13.72673714 9.07254135 -13.72673714 9.07254135 0 0 Z " fill="#FFFFFF" transform="translate(461,294)"/>
<path d="M0 0 C1.29744141 0.65742188 1.29744141 0.65742188 2.62109375 1.328125 C3.89308503 1.96903613 5.16523587 2.60963065 6.4375 3.25 C7.12529541 3.59772461 7.81309082 3.94544922 8.52172852 4.30371094 C13.17619069 6.63924009 17.86634358 8.87811221 22.59375 11.0625 C23.72369385 11.5894043 24.8536377 12.11630859 26.01782227 12.65917969 C28.2837086 13.71326089 30.55502548 14.75575202 32.83178711 15.78613281 C33.8760083 16.27436523 34.92022949 16.76259766 35.99609375 17.265625 C36.93638428 17.69649414 37.8766748 18.12736328 38.84545898 18.57128906 C41 20 41 20 41.86621094 22.05517578 C42.08989785 25.30679973 40.31617849 26.98194746 38.38671875 29.4453125 C36.64428661 31.3987998 35.57651173 32.39376195 33 33 C27.83120219 32.54963453 23.92780347 31.28424547 19.296875 28.98046875 C18.6924054 28.68062576 18.08793579 28.38078278 17.46514893 28.07185364 C16.19891507 27.44042614 14.93515457 26.80401607 13.67382812 26.1628418 C11.7480612 25.18651707 9.81248899 24.23210807 7.875 23.27929688 C6.6399814 22.66013627 5.40558348 22.03973573 4.171875 21.41796875 C3.0590918 20.85875732 1.94630859 20.2995459 0.79980469 19.72338867 C-1.96120535 18.02387962 -3.37716523 16.77424504 -5 14 C-5.95631797 8.74025115 -3.93414559 5.75231597 -1.09375 1.5390625 C-0.7328125 1.03117187 -0.371875 0.52328125 0 0 Z " fill="#FFFFFF" transform="translate(126,290)"/>
</svg>
