<?xml version="1.0" encoding="UTF-8"?>
<svg version="1.1" xmlns="http://www.w3.org/2000/svg" width="512" height="512">
<path d="M0 0 C1.23723127 -0.01090081 1.23723127 -0.01090081 2.49945712 -0.02202183 C5.27568191 -0.04033431 8.05053598 -0.0228878 10.82675171 -0.00571251 C12.83216371 -0.01147123 14.83757044 -0.01941066 16.84296608 -0.02934873 C22.36332401 -0.05027942 27.88325142 -0.03987851 33.40361118 -0.02441764 C39.35326156 -0.01313353 45.30283641 -0.03055222 51.25247192 -0.04431725 C62.2372964 -0.06529772 73.22199248 -0.0634344 84.20682198 -0.0497599 C94.35417416 -0.03718972 104.50147586 -0.03389505 114.64883423 -0.03987312 C115.32152944 -0.04025505 115.99422465 -0.04063697 116.68730457 -0.04103047 C119.41788821 -0.04258713 122.14847183 -0.04417912 124.87905542 -0.04582929 C150.50208876 -0.0611296 176.12503437 -0.04724861 201.74805418 -0.02034481 C224.52026468 0.00338384 247.29233539 0.00126073 270.06454468 -0.02264977 C295.64024438 -0.04941402 321.21586653 -0.06004458 346.79157829 -0.04458845 C349.51723097 -0.04298482 352.24288367 -0.04142062 354.96853638 -0.03987312 C355.97524865 -0.03928004 355.97524865 -0.03928004 357.00229855 -0.03867498 C367.14410122 -0.03298392 377.2858479 -0.03964585 387.42764282 -0.05227089 C398.95757481 -0.06655226 410.48734969 -0.06254267 422.01726294 -0.03586717 C427.90343697 -0.02269917 433.78932683 -0.01762753 439.67549896 -0.03411293 C445.05925774 -0.04896351 450.44246773 -0.04090503 455.8261764 -0.01422517 C457.77831818 -0.00861942 459.73050591 -0.0115272 461.68261838 -0.02360411 C464.32820303 -0.03872133 466.97188669 -0.02330842 469.61737061 0 C470.38251818 -0.01170583 471.14766576 -0.02341166 471.93599963 -0.03547221 C475.90087753 0.03476696 477.64099442 0.49551169 480.78131711 2.99917996 C483.14717666 6.06831735 483.4362646 7.48949861 483.44360352 11.32195473 C483.45770264 12.45751305 483.47180176 13.59307137 483.48632812 14.76304054 C483.47114639 16.61781769 483.47114639 16.61781769 483.45565796 18.51006508 C483.46880035 20.47421112 483.46880035 20.47421112 483.48220825 22.47803688 C483.50497185 26.06290906 483.49617817 29.64706052 483.48031282 33.23194504 C483.46763824 36.98657714 483.47939824 40.74114828 483.48724365 44.49578285 C483.49633574 50.80062355 483.48436412 57.10517123 483.46054077 63.40996742 C483.43332999 70.69528863 483.44214449 77.97991019 483.4696728 85.26521444 C483.49237568 91.52442579 483.4955583 97.78342673 483.48247945 104.04266596 C483.47469128 107.77920466 483.47362548 111.51541467 483.4901619 115.25193214 C483.50731132 119.41782382 483.48353217 123.58251277 483.45565796 127.74834633 C483.46577911 128.98486443 483.47590027 130.22138252 483.48632812 131.49537086 C483.37088859 140.7929949 483.37088859 140.7929949 480.45574951 143.87175941 C476.47011045 146.51791607 473.55516032 146.76063827 468.87191772 146.79033852 C467.65022385 146.79994606 466.42852997 146.8095536 465.16981506 146.81945229 C463.83459663 146.8243008 462.49937602 146.8285795 461.16415405 146.8323307 C459.7927602 146.83808548 458.42136636 146.84384318 457.04997253 146.84960365 C454.17421088 146.86010493 451.2984771 146.86595308 448.42269897 146.86944008 C444.74744519 146.87491842 441.07256306 146.89893552 437.39742565 146.92741203 C434.56374556 146.9460875 431.73015404 146.95124664 428.89641762 146.95277596 C426.88569978 146.95725487 424.87502945 146.97587841 422.86439514 146.99474525 C421.63324478 146.99174416 420.40209442 146.98874306 419.13363647 146.98565102 C418.05458542 146.98929665 416.97553436 146.99294228 415.86378479 146.99669838 C412.2400006 146.5607996 409.88788159 145.57814299 406.8086853 143.6292057 C396.96546993 123.94277496 404.8086853 99.6393044 404.8086853 77.6292057 C327.2586853 77.9592057 249.7086853 78.2892057 169.8086853 78.6292057 C173.4386853 82.9192057 177.0686853 87.2092057 180.8086853 91.6292057 C184.9336853 96.7542057 184.9336853 96.7542057 186.85165405 99.17217445 C190.45573181 103.69705452 194.1394562 108.15713673 197.8086853 112.6292057 C199.30896847 114.46230732 200.80896938 116.29563998 202.3086853 118.1292057 C203.0511853 119.0367057 203.7936853 119.9442057 204.5586853 120.8792057 C292.3086853 228.1292057 292.3086853 228.1292057 294.54696655 230.86748695 C296.0826451 232.7426592 297.62183298 234.61496184 299.16415405 236.48467445 C300.69123043 238.33916419 302.21106588 240.19964593 303.7227478 242.0667057 C305.02740543 243.66943118 306.35257863 245.25591406 307.7071228 246.8167057 C310.72069303 250.43864926 312.93341425 253.52488131 312.51571655 258.50811195 C310.90942766 263.32697862 307.12761924 266.90093659 303.8086853 270.6292057 C302.32183832 272.43541066 300.84272449 274.24800763 299.3711853 276.0667057 C297.85063229 277.92110226 296.32979807 279.77526827 294.8086853 281.6292057 C293.30840214 283.46230732 291.80840122 285.29563998 290.3086853 287.1292057 C257.3086853 327.46253904 224.3086853 367.79587237 191.3086853 408.1292057 C190.56747437 409.03541664 189.82626343 409.94162758 189.06259155 410.87529945 C187.55070303 412.72258093 186.03766781 414.56892445 184.52352905 416.41436195 C183.77200562 417.33088539 183.02048218 418.24740883 182.2461853 419.1917057 C181.25425171 420.4002018 181.25425171 420.4002018 180.24227905 421.63311195 C176.73974432 425.94522133 173.27909186 430.29119751 169.8086853 434.6292057 C286.1336853 435.1242057 286.1336853 435.1242057 404.8086853 435.6292057 C404.8086853 415.1692057 404.8086853 394.7092057 404.8086853 373.6292057 C408.3024515 367.80626204 408.3024515 367.80626204 412.8086853 366.6292057 C415.7233429 366.36850929 415.7233429 366.36850929 418.97250366 366.3545475 C420.19404648 366.34501549 421.41558929 366.33548347 422.67414856 366.32566261 C424.6414669 366.32702972 424.6414669 366.32702972 426.64852905 366.32842445 C428.01706573 366.32453377 429.3856012 366.32019834 430.75413513 366.31543922 C433.61798014 366.30799195 436.48170184 366.30825744 439.34555054 366.31353188 C443.00508679 366.31932534 446.66411672 366.30239185 450.3235693 366.2791872 C453.14868594 366.26441456 455.97368161 366.26358291 458.79883003 366.26669693 C460.80066788 366.26593786 462.80248703 366.25209453 464.80427551 366.23801613 C466.02897049 366.24424492 467.25366547 366.25047371 468.51547241 366.25689125 C469.58849106 366.25626183 470.6615097 366.2556324 471.76704407 366.2549839 C475.35242426 366.69610346 477.73272768 367.75522599 480.8086853 369.6292057 C483.05586746 372.99997894 483.06423402 374.13550742 483.08283997 378.08144569 C483.09281509 379.21425468 483.10279022 380.34706367 483.11306763 381.51420021 C483.1137323 382.75790886 483.11439697 384.00161751 483.11508179 385.2830143 C483.1234053 386.59215294 483.13172882 387.90129158 483.14030457 389.25010109 C483.16226157 392.84312831 483.17105004 396.43607043 483.17613101 400.02915716 C483.17977317 402.27402031 483.18601249 404.51886111 483.1931324 406.76371574 C483.21763109 414.59551664 483.23067969 422.42725126 483.23422241 430.25908852 C483.23785803 437.55908104 483.2677538 444.85865321 483.309627 452.15851724 C483.34431849 458.42613459 483.35977065 464.69361256 483.36046845 470.96132529 C483.36126167 474.70465984 483.37002008 478.44756628 483.39846611 482.19080162 C483.42948773 486.36637225 483.42059277 490.54094109 483.40805054 494.71660805 C483.42288483 495.95626823 483.43771912 497.19592842 483.45300293 498.47315407 C483.44323929 499.61160271 483.43347565 500.75005135 483.42341614 501.92299843 C483.42542747 502.91002943 483.42743879 503.89706043 483.42951107 504.91400146 C482.54142368 508.79808421 480.90762217 510.15933206 477.8086853 512.6292057 C474.88180611 513.12080868 472.53904545 513.30310949 469.61737061 513.25841141 C468.79254976 513.26567861 467.96772891 513.27294582 467.11791348 513.28043324 C464.3416887 513.29874571 461.56683462 513.28129921 458.7906189 513.26412392 C456.7852069 513.26988264 454.77980017 513.27782207 452.77440453 513.28776014 C447.2540466 513.30869082 441.73411918 513.29828991 436.21375942 513.28282905 C430.26410904 513.27154494 424.31453419 513.28896363 418.36489868 513.30272865 C407.38007421 513.32370913 396.39537813 513.32184581 385.41054863 513.30817131 C375.26319644 513.29560113 365.11589475 513.29230646 354.96853638 513.29828453 C353.95949356 513.29885742 353.95949356 513.29885742 352.93006603 513.29944188 C350.19948239 513.30099853 347.46889877 513.30259053 344.73831519 513.3042407 C319.11528184 513.31954101 293.49233624 513.30566002 267.86931643 513.27875621 C245.09710592 513.25502757 222.32503521 513.25715068 199.55282593 513.28106117 C173.97712623 513.30782543 148.40150407 513.31845598 122.82579231 513.30299985 C120.10013964 513.30139623 117.37448694 513.29983203 114.64883423 513.29828453 C113.64212195 513.29769145 113.64212195 513.29769145 112.61507206 513.29708639 C102.47326938 513.29139533 92.3315227 513.29805725 82.18972778 513.3106823 C70.6597958 513.32496367 59.13002092 513.32095408 47.60010767 513.29427858 C41.71393363 513.28111058 35.82804377 513.27603894 29.94187164 513.29252434 C24.55811287 513.30737492 19.17490287 513.29931644 13.7911942 513.27263658 C11.83905242 513.26703083 9.8868647 513.26993861 7.93475223 513.28201552 C5.28916758 513.29713274 2.64548392 513.28171983 0 513.25841141 C-0.76514758 513.27011724 -1.53029516 513.28182307 -2.31862903 513.29388362 C-6.24991899 513.22423947 -8.03115959 512.75400399 -11.16933632 510.30863035 C-13.1913147 507.6292057 -13.1913147 507.6292057 -13.73428345 504.1292057 C-13.11154472 500.11500501 -12.18539458 498.63334546 -9.5038147 495.6292057 C-8.68139282 494.68690102 -7.85897095 493.74459633 -7.0116272 492.77373695 C-6.55819946 492.26923012 -6.10477173 491.76472328 -5.63760376 491.24492836 C-4.11135889 489.53988303 -2.61392727 487.81270108 -1.1210022 486.07842445 C1.07332301 483.53013269 3.27508019 480.98867053 5.48446655 478.45342445 C8.61160562 474.86152625 11.71387297 471.24896219 14.8086853 467.6292057 C19.50074038 462.14443253 24.22172517 456.68544244 28.95321655 451.23467445 C32.58701126 447.04583712 36.20374712 442.84289334 39.8086853 438.6292057 C44.50093469 433.14459758 49.22172384 427.68544397 53.95321655 422.23467445 C57.58701126 418.04583712 61.20374712 413.84289334 64.8086853 409.6292057 C69.50093469 404.14459758 74.22172384 398.68544397 78.95321655 393.23467445 C82.58701126 389.04583712 86.20374712 384.84289334 89.8086853 380.6292057 C94.50093469 375.14459758 99.22172384 369.68544397 103.95321655 364.23467445 C107.58701126 360.04583712 111.20374712 355.84289334 114.8086853 351.6292057 C119.50093469 346.14459758 124.22172384 340.68544397 128.95321655 335.23467445 C132.58701126 331.04583712 136.20374712 326.84289334 139.8086853 322.6292057 C144.50093469 317.14459758 149.22172384 311.68544397 153.95321655 306.23467445 C157.58701126 302.04583712 161.20374712 297.84289334 164.8086853 293.6292057 C169.49148312 288.15564519 174.20261421 282.70735831 178.9246521 277.26763344 C184.58181623 270.74645362 190.19789665 264.19029009 195.8086853 257.6292057 C194.13120581 253.59736903 191.34045796 250.56004723 188.4961853 247.3167057 C187.96638062 246.70569008 187.43657593 246.09467445 186.89071655 245.4651432 C185.76799154 244.17111039 184.64343576 242.87866403 183.5171814 241.5877018 C181.3151713 239.06347702 179.1221411 236.53153712 176.92904663 233.99956703 C175.842191 232.74502417 174.75478184 231.49096066 173.6668396 230.23736 C169.53424755 225.47457074 165.42747447 220.69021784 161.32821655 215.89873695 C157.6715415 211.62781728 153.99433051 207.37513902 150.3086853 203.1292057 C145.62772971 197.73665591 140.97032866 192.32474135 136.32821655 186.89873695 C132.6715415 182.62781728 128.99433051 178.37513902 125.3086853 174.1292057 C120.62772971 168.73665591 115.97032866 163.32474135 111.32821655 157.89873695 C107.6715415 153.62781728 103.99433051 149.37513902 100.3086853 145.1292057 C95.62772971 139.73665591 90.97032866 134.32474135 86.32821655 128.89873695 C82.6715415 124.62781728 78.99433051 120.37513902 75.3086853 116.1292057 C70.62772971 110.73665591 65.97032866 105.32474135 61.32821655 99.89873695 C57.6715415 95.62781728 53.99433051 91.37513902 50.3086853 87.1292057 C45.62772971 81.73665591 40.97032866 76.32474135 36.32821655 70.89873695 C32.6715415 66.62781728 28.99433051 62.37513902 25.3086853 58.1292057 C20.63112155 52.74056337 15.97506726 47.33427766 11.33920288 41.90972328 C8.146 38.17703191 4.92770226 34.46739356 1.69613647 30.76787758 C-0.47274102 28.27848092 -2.62752794 25.77724013 -4.7772522 23.27129555 C-6.03061483 21.81581953 -7.29749954 20.37201207 -8.5663147 18.92998695 C-11.47867876 15.47155463 -13.04279752 13.3717916 -13.9413147 8.8792057 C-12.18555778 1.27092572 -7.07363374 -0.10821802 0 0 Z " fill="#FFFFFF" transform="translate(21.191314697265625,-0.6292057037353516)"/>
</svg>
